<?xml version="1.0" encoding="UTF-8" standalone="no"?>
<!-- Generator: Adobe Illustrator 15.1.0, SVG Export Plug-In . SVG Version: 6.00 Build 0)  -->

<svg
   xmlns:dc="http://purl.org/dc/elements/1.1/"
   xmlns:cc="http://creativecommons.org/ns#"
   xmlns:rdf="http://www.w3.org/1999/02/22-rdf-syntax-ns#"
   xmlns:svg="http://www.w3.org/2000/svg"
   xmlns="http://www.w3.org/2000/svg"
   xmlns:sodipodi="http://sodipodi.sourceforge.net/DTD/sodipodi-0.dtd"
   xmlns:inkscape="http://www.inkscape.org/namespaces/inkscape"
   version="1.1"
   id="Layer_1"
   x="0px"
   y="0px"
   width="100px"
   height="100px"
   viewBox="0 0 100 100"
   enable-background="new 0 0 100 100"
   xml:space="preserve"
   inkscape:version="0.48.2 r9819"
   sodipodi:docname="download.svg"><metadata
   id="metadata11"><rdf:RDF><cc:Work
       rdf:about=""><dc:format>image/svg+xml</dc:format><dc:type
         rdf:resource="http://purl.org/dc/dcmitype/StillImage" /></cc:Work></rdf:RDF></metadata><defs
   id="defs9" /><sodipodi:namedview
   pagecolor="#ffffff"
   bordercolor="#666666"
   borderopacity="1"
   objecttolerance="10"
   gridtolerance="10"
   guidetolerance="10"
   inkscape:pageopacity="0"
   inkscape:pageshadow="2"
   inkscape:window-width="721"
   inkscape:window-height="480"
   id="namedview7"
   showgrid="false"
   inkscape:zoom="2.36"
   inkscape:cx="50"
   inkscape:cy="45.652856"
   inkscape:window-x="341"
   inkscape:window-y="57"
   inkscape:window-maximized="0"
   inkscape:current-layer="Layer_1" />
<path
   d="m 25.724782,58.361932 c 6.830585,7.541103 13.66232,15.082206 20.492905,22.623309 0.503585,0.553592 1.093399,0.755378 1.663669,0.719459 0.570269,0.03592 1.162383,-0.164811 1.663668,-0.719459 6.830585,-7.541103 13.66232,-15.082206 20.492905,-22.623309 1.26471,-1.393488 0.530028,-3.691317 -1.662519,-3.691317 -2.867443,0 -5.732587,0 -8.59888,0 0,-11.404625 0,-22.809249 0,-34.21493 0,-1.179024 -1.070405,-2.1626 -2.353511,-2.1626 -6.359193,0 -12.720685,0 -19.083327,0 -1.283106,0 -2.353511,0.983576 -2.353511,2.1626 0,11.405681 0,22.810305 0,34.21493 -2.866293,0 -5.731436,0 -8.598879,0 -2.192548,0 -2.92723,2.297829 -1.66252,3.691317 z"
   id="path3"
   inkscape:connector-curvature="0"
   style="fill:#bebebe;fill-opacity:1" />

</svg>